<svg version="1.1" id="Capa_1" xmlns="http://www.w3.org/2000/svg" xmlns:xlink="http://www.w3.org/1999/xlink" x="0px" y="0px"
	 viewBox="0 0 205.312 205.312" style="enable-background:new 0 0 205.312 205.312;" xml:space="preserve">

		<path style="fill:#010002;" d="M205.312,149.056h-33.523l-10.361-31.888l-10.357,31.888h-33.523l27.113,19.712l-10.357,31.88
			l27.121-19.712l27.124,19.712l-10.361-31.88L205.312,149.056z M180.732,189.894l-19.308-14.029l-19.304,14.029l7.372-22.701
			l-19.308-14.022h23.871l7.369-22.704l7.372,22.704h23.871l-19.311,14.022L180.732,189.894z"/>
		<path style="fill:#010002;" d="M108.844,21.438c34.285,14.523,60.869,41.525,74.845,76.029l5.332-2.158
			C158.976,21.13,74.179-14.748,0,15.271l2.158,5.332C36.669,6.625,74.558,6.925,108.844,21.438z"/>
		<path style="fill:#010002;" d="M95.824,52.176c26.083,11.041,46.3,31.576,56.932,57.827l5.322-2.154
			c-11.205-27.679-32.514-49.324-60.01-60.966C70.582,35.252,40.205,35.016,12.53,46.214l2.162,5.332
			C40.935,40.91,69.755,41.136,95.824,52.176z"/>
		<path style="fill:#010002;" d="M125.611,121.001c-15.887-39.224-60.722-58.192-99.925-42.323l2.154,5.332
			c36.279-14.695,77.754,2.863,92.449,39.145L125.611,121.001z"/>
</svg>
